<?xml version="1.0" encoding="utf-8"?>
<!-- Generator: Adobe Illustrator 16.0.0, SVG Export Plug-In . SVG Version: 6.00 Build 0)  -->
<!DOCTYPE svg PUBLIC "-//W3C//DTD SVG 1.1//EN" "http://www.w3.org/Graphics/SVG/1.1/DTD/svg11.dtd">
<svg version="1.1" id="Layer_1" xmlns="http://www.w3.org/2000/svg" xmlns:xlink="http://www.w3.org/1999/xlink" x="0px" y="0px"
	 width="408.988px" height="387.018px" viewBox="0 0 408.988 387.018" enable-background="new 0 0 408.988 387.018"
	 xml:space="preserve">
<path fill-rule="evenodd" clip-rule="evenodd" d="M291.724,66.773c-2.23-0.155-4.461-0.31-7.305-0.507
	c-2.945-17.608-14.115-30.917-26.054-43.785c0.442-0.463,0.886-0.927,1.329-1.391c1.57,0.5,3.318,0.709,4.684,1.544
	c17.906,10.942,31.468,25.433,37.38,46.128c0.399,1.398,1.248,2.686,1.994,3.962c3.349,5.729,7.175,11.227,10.001,17.2
	c3.713,7.847,9.293,13.231,17.357,16.244c4.205,1.571,8.382,3.236,12.49,5.043c4.83,2.125,7.343,6.062,6.47,11.205
	c-0.937,5.515-2.611,10.924-4.278,16.282c-0.468,1.506-2.041,2.669-4.108,5.23c-0.941-5.196-1.363-8.923-2.355-12.492
	c-0.616-2.218-2.097-4.197-3.189-6.283c-2.221,1.186-4.771,2.008-6.581,3.647c-2.442,2.21-4.25,5.109-6.465,7.592
	c-1.016,1.137-2.354,1.986-4.685,3.903c0-3.353,0.161-5.254-0.036-7.118c-0.346-3.278-0.331-6.76-1.501-9.752
	c-2.516-6.431-7.76-7.946-13.809-4.589c-1.623,0.901-3.258,1.784-4.947,2.708c-0.438-0.98-0.75-1.337-0.672-1.552
	c3.076-8.46-0.614-13.698-10.087-13.736c-1.311-0.005-3.543,2.009-3.752,3.339c-0.423,2.693-0.023,5.613,0.533,8.338
	c0.863,4.231,2.268,8.348,3.209,12.566c1.111,4.973,3.078,8.599,9.377,6.798c0.289,1.013,0.522,1.757,0.714,2.512
	c3.194,12.626,9.257,17.544,22.344,17.409c3.999-0.041,5.017,1.372,4.468,4.953c-0.904,5.898-3.687,10.958-9.496,12.318
	c-7.913,1.852-13.549,6.779-19.465,11.595c-1.332,1.084-2.848,1.941-4.278,2.902c-0.378-0.257-0.756-0.515-1.134-0.772
	c0.967-3.426,1.907-6.859,2.904-10.276c2.451-8.394,1.41-10.636-5.805-15.264c-2.208-1.417-4.051-3.866-5.268-6.248
	c-1.493-2.924-2.162-6.272-3.176-9.44c-3.161-9.883-9.559-16.569-19.466-19.86c-2.681-0.89-5.336-1.887-7.926-3.012
	c-12.095-5.256-15.018-13.995-8.536-25.333c0.402-0.705,0.814-1.404,1.315-2.265c-4.154,1.277-4.154,1.277-10.239,13.356
	c-7.44-2.871-14.713-6.291-22.336-8.506c-26.599-7.73-51.358-2.085-74.852,11.288c-13.572,7.726-25.475,17.562-36.164,28.905
	c-2.106,2.235-4.224,4.461-6.336,6.691c-0.398-0.279-0.795-0.558-1.193-0.836c4.038-6.757,8.076-13.515,12.031-20.133
	c-11.888,3.262-33.083,36.551-39.704,62.236c-6.446,25.008-5.222,49.989-0.371,75.159c-15.994-16.851-19.637-38.551-24.866-60.455
	c-0.781,1.734-1.543,3.479-2.346,5.203c-2.7,5.804-4.745,12.049-8.27,17.299c-6.24,9.296-9.898,19.15-9.956,30.334
	c-0.013,2.584-0.002,5.168-0.002,8.352c-14.146-24.375-13.629-52.233,3.527-73.324c1.891-2.324,3.816-4.646,5.945-6.745
	c11.691-11.531,15.612-25.958,15.77-41.817c0.005-0.484-0.111-0.995-0.291-1.445c-0.103-0.258-0.447-0.42-1.196-1.073
	c-9.659,14.663-21.878,26.31-38.896,32.216c8.542-9.613,11.249-21.604,14.665-33.355c4.427-15.228,14.452-25.86,28.159-33.469
	c8.95-4.968,17.624-10.434,26.421-15.676c-0.146-0.391-0.293-0.782-0.439-1.172c-8.037-0.392-16.074-0.785-24.862-1.213
	c7.947-5.394,15.079-10.562,22.575-15.132c2.389-1.457,5.757-1.892,8.655-1.828c14.356,0.319,28.227-2.316,41.662-6.971
	c36.12-12.515,72.681-13.629,109.731-5.053c1.068,0.248,2.164,0.386,4.17,0.735c-1.079-2.349-1.843-3.929-2.537-5.54
	c-3.492-8.091-7.119-16.131-10.312-24.339c-0.593-1.523,0.585-3.735,0.946-5.629c1.31,0.962,3.029,1.655,3.867,2.927
	c11.424,17.35,27.202,30.001,44.311,41.195c4.281,2.8,9.031,3.134,13.885,1.261c2.161-0.834,4.379-1.519,6.572-2.271
	C291.671,67.385,291.697,67.079,291.724,66.773z M279.853,86.064c-0.445,0.422-0.891,0.845-1.337,1.268
	c2.284,2.252,4.267,5.764,6.937,6.401c2.643,0.632,5.979-1.634,9.01-2.63c-0.165-0.493-0.331-0.985-0.496-1.478
	C289.261,88.438,284.557,87.251,279.853,86.064z"/>
<path fill-rule="evenodd" clip-rule="evenodd" d="M96.54,306.967c0.935,9.104,0.881,17.383-6.861,24.461
	c0-3.029-0.093-5.12,0.017-7.2c0.349-6.561-0.828-12.599-3.289-18.889c-2.529-6.464-4.164-13.981-3.572-20.812
	c1.177-13.58,0.575-26.806-1.473-40.256c-8.264-54.262,16.904-100.912,66.785-123.894c9.161-4.221,18.917-7.333,28.646-10.079
	c8.101-2.287,13.438,0.169,17.371,6.196c4.281,6.561,4.663,14.525-0.89,20.361c-4.689,4.928-10.806,8.702-16.774,12.149
	c-5.732,3.311-12.262,5.209-18.132,8.314c-20.081,10.622-27.937,28.495-29.021,50.173c-0.174,3.484-0.024,6.986-0.024,11.928
	c-6.98-7.967-8.108-17.203-12.156-26.666c-11.032,25.78-12.686,50.59-3.056,75.725c9.494,24.777,27.958,42.09,49.021,57.302
	c-12.839,0.547-23.873-5.292-35.992-10.179c-0.372,12.965,2.031,24.19,11.316,32.514c7.266,6.513,12.223,13.738,13.798,23.511
	c0.806,5.005,3.008,9.786,3.883,15.392c-1.265-1.072-2.683-2.01-3.769-3.239c-5.502-6.229-10.754-12.687-16.415-18.765
	c-4.615-4.955-9.083-10.447-14.702-13.969c-7.271-4.557-10.687-10.389-11.58-18.582C108.056,317.666,107.908,317.682,96.54,306.967z
	"/>
<path fill-rule="evenodd" clip-rule="evenodd" d="M318.562,267.006c-8.481,1.479-16.496,2.65-24.405,4.322
	c-6.691,1.414-12.68,4.719-16.722,10.248c-8.209,11.229-17.713,20.323-33.972,22.502c12.57,6.932,25.55,11.633,25.728,27.582
	c-0.499,0.039-0.931,0.193-1.042,0.065c-10.966-12.466-25.386-16.169-41.257-16.805c-14.783-0.593-29.706-0.706-44.279-2.921
	c-30.634-4.658-55.906-31.539-59.844-62.339c-0.518-4.047-0.2-8.354,0.57-12.38c1.539-8.041,6.633-12.955,13.612-14.032
	c7.992-1.233,16.105,2.033,19.499,9.079c2.556,5.305,4.807,11.212,5.251,17c1.813,23.648,18.008,38.816,47.997,34.671
	c16.418-2.27,31.197-9.196,46.26-15.409c12.659-5.221,25.537-9.764,39.351-10.664C304.273,257.342,312.284,259.516,318.562,267.006z
	"/>
<path fill-rule="evenodd" clip-rule="evenodd" d="M366.354,151.584c9.03,0.324,16.346,8.887,14.574,16.377
	c-0.536,2.269-2.699,4.559-4.723,5.971c-2.632,1.836-2.732,3.513-1.064,5.743c1.789,2.392,3.582,4.801,5.597,6.998
	c3.029,3.304,6.571,5.083,11.115,2.855c4.682-2.295,6.269-6.23,5.813-11.12c-0.221-2.373-0.874-4.706-1.56-8.226
	c4.783,2.991,5.87,6.701,6.374,10.57c0.854,6.554-0.858,12.396-6.503,16.208c-5.593,3.779-11.939,3.272-16.795-0.756
	c-4.316-3.581-7.509-8.649-10.728-13.38c-3.156-4.639-5.228-10.068-8.661-14.456c-5.214-6.662-12.479-10.091-20.951-11.384
	c-12.164-1.857-23.937-5.117-32.277-15.044c-2.957-3.521-4.846-7.939-7.864-13.032c2.184,0.344,2.603,0.316,2.645,0.43
	c6.124,16.318,19.723,21.438,35.226,22.007c13.434,0.493,24.397,4.241,32.02,15.817c0.878,1.335,2.755,2.012,4.169,2.995
	c0.88-1.657,2.713-3.491,2.444-4.934c-0.599-3.224-1.957-6.414-3.58-9.295C370.738,154.354,368.685,153.436,366.354,151.584z"/>
</svg>
